<?xml version="1.0" encoding="UTF-8" standalone="no"?>
<svg
   width="430.07812"
   height="45.03125"
   viewBox="0 0 430.07812 45.03125"
   version="1.1"
   id="svg70"
   sodipodi:docname="logo.svg"
   inkscape:version="1.2.1 (9c6d41e410, 2022-07-14)"
   xmlns:inkscape="http://www.inkscape.org/namespaces/inkscape"
   xmlns:sodipodi="http://sodipodi.sourceforge.net/DTD/sodipodi-0.dtd"
   xmlns="http://www.w3.org/2000/svg"
   xmlns:svg="http://www.w3.org/2000/svg"
   xmlns:xhtml="http://www.w3.org/1999/xhtml">
  <defs
     id="defs74" />
  <sodipodi:namedview
     id="namedview72"
     pagecolor="#ffffff"
     bordercolor="#000000"
     borderopacity="0.25"
     inkscape:showpageshadow="2"
     inkscape:pageopacity="0.0"
     inkscape:pagecheckerboard="0"
     inkscape:deskcolor="#d1d1d1"
     showgrid="false"
     inkscape:zoom="2.36"
     inkscape:cx="136.44068"
     inkscape:cy="38.559322"
     inkscape:window-width="1280"
     inkscape:window-height="731"
     inkscape:window-x="0"
     inkscape:window-y="0"
     inkscape:window-maximized="1"
     inkscape:current-layer="svg_1" />
  <!-- Created with SVG-edit - https://github.com/SVG-Edit/svgedit-->
  <!-- Created with SVG-edit - https://github.com/SVG-Edit/svgedit-->
  <g
     class="layer"
     id="g68"
     transform="translate(-0.484375,-11.59375)">
    <title
       id="title62">Layer 1</title>
    <g
       aria-label="Sound"
       id="svg_1"
       style="font-size:64px;font-family:Serif;text-anchor:middle;stroke:#000000;stroke-width:0">
      <path
         d="m 0.546875,44.71875 h 2.03125 l 1.09375,5.65625 q 1.15625,1.46875 3.96875,2.59375 2.84375,1.125 5.59375,1.125 4.375,0 6.8125,-2.21875 2.46875,-2.25 2.46875,-6.1875 0,-2.25 -0.96875,-3.71875 -0.9375,-1.46875 -2.5,-2.46875 -1.53125,-1.03125 -3.5,-1.71875 -1.96875,-0.71875 -4.0625,-1.4375 -2.0625,-0.71875 -4.03125,-1.59375 -1.96875,-0.875 -3.53125,-2.21875 -1.53125,-1.34375 -2.5,-3.3125 -0.9375,-2 -0.9375,-4.90625 0,-5 3.75,-7.84375 3.75,-2.84375 10.40625,-2.84375 5.0625,0 11,1.34375 v 8.71875 h -2.03125 l -1.09375,-5.125 q -3.1875,-2.3125 -7.875,-2.3125 -4.1875,0 -6.5625,1.71875 -2.34375,1.6875 -2.34375,4.6875 0,2.03125 0.9375,3.375 0.96875,1.34375 2.5,2.3125 1.5625,0.9375 3.53125,1.625 2,0.6875 4.0625,1.4375 2.09375,0.71875 4.0625,1.65625 2,0.90625 3.53125,2.34375 1.5625,1.40625 2.5,3.46875 0.96875,2.03125 0.96875,5.03125 0,6.0625 -3.71875,9.40625 -3.71875,3.3125 -10.71875,3.3125 -3.375,0 -6.78125,-0.59375 -3.40625,-0.59375 -6.0625,-1.625 z"
         id="path10462" />
      <path
         d="m 61.359375,41.15625 q 0,15.46875 -13.75,15.46875 -6.625,0 -10,-3.96875 -3.375,-3.96875 -3.375,-11.5 0,-7.4375 3.375,-11.375 3.375,-3.9375 10.25,-3.9375 6.6875,0 10.09375,3.875 3.40625,3.84375 3.40625,11.4375 z m -5.625,0 q 0,-6.75 -1.96875,-9.78125 -1.96875,-3.03125 -6.15625,-3.03125 -4.09375,0 -5.9375,2.90625 -1.8125,2.90625 -1.8125,9.90625 0,7.09375 1.84375,10.0625 1.875,2.9375 5.90625,2.9375 4.125,0 6.125,-3.0625 2,-3.0625 2,-9.9375 z"
         id="path10464" />
      <path
         d="m 73.578125,47.625 q 0,5.375 5,5.375 3.875,0 7.25,-0.96875 V 28.8125 l -4.4375,-0.78125 V 26.625 h 9.59375 v 27.1875 l 3.71875,0.78125 V 56 h -8.5625 l -0.25,-2.375 q -2.21875,1.21875 -5.125,2.125 -2.90625,0.875 -4.875,0.875 -7.5,0 -7.5,-8.625 V 28.8125 l -3.75,-0.78125 V 26.625 h 8.9375 z"
         id="path10466" />
      <path
         d="m 105.92188,29 q 2.40625,-1.375 5.125,-2.25 2.71875,-0.90625 4.53125,-0.90625 3.8125,0 5.75,2.21875 1.9375,2.21875 1.9375,6.4375 v 19.3125 l 3.5625,0.78125 V 56 h -12.65625 v -1.40625 l 3.90625,-0.78125 v -18.75 q 0,-2.59375 -1.28125,-4.0625 -1.25,-1.5 -3.90625,-1.5 -2.8125,0 -6.90625,0.90625 V 53.8125 l 3.96875,0.78125 V 56 H 97.265625 v -1.40625 l 3.531255,-0.78125 v -25 L 97.265625,28.03125 V 26.625 h 8.375005 z"
         id="path10468" />
      <path
         d="m 150.39062,53.8125 q -3.53125,2.8125 -8.25,2.8125 -12.03125,0 -12.03125,-15.03125 0,-7.71875 3.40625,-11.71875 3.40625,-4.03125 10.03125,-4.03125 3.375,0 6.84375,0.71875 -0.1875,-1.03125 -0.1875,-5.1875 V 13.75 L 145.26562,13 v -1.40625 h 10.125 V 53.8125 l 3.625,0.78125 V 56 h -8.25 z M 135.73437,41.59375 q 0,5.9375 2,8.875 2,2.90625 6.125,2.90625 3.53125,0 6.34375,-1.21875 V 28.9375 q -2.78125,-0.53125 -6.34375,-0.53125 -8.125,0 -8.125,13.1875 z"
         id="path10470" />
    </g>
    <g
       aria-label="Prediction"
       id="svg_2"
       style="font-size:64px;font-family:Serif;text-anchor:middle;fill:#dd3333;stroke:#000000;stroke-width:0">
      <path
         d="m 195.28125,26.5 q 0,-5.15625 -2.40625,-7.375 -2.40625,-2.21875 -8.09375,-2.21875 h -3.0625 V 36.75 h 3.25 q 5.28125,0 7.78125,-2.40625 2.53125,-2.40625 2.53125,-7.84375 z m -13.5625,13.0625 V 53.5 l 6.65625,0.84375 V 56 H 170.71875 V 54.34375 L 175.6875,53.5 V 16.5625 l -5.375,-0.8125 v -1.65625 h 15.8125 q 15.375,0 15.375,12.34375 0,6.4375 -3.90625,9.78125 -3.875,3.34375 -11.15625,3.34375 z"
         id="path10441" />
      <path
         d="m 224.8125,25.84375 v 7.9375 h -1.34375 l -1.8125,-3.4375 q -1.5625,0 -3.71875,0.4375 -2.125,0.40625 -3.6875,1.09375 v 21.9375 l 5.03125,0.78125 V 56 h -13.9375 v -1.40625 l 3.71875,-0.78125 v -25 l -3.71875,-0.78125 V 26.625 h 8.5625 l 0.28125,3.65625 q 1.875,-1.5625 5.0625,-3 3.21875,-1.4375 5.09375,-1.4375 z"
         id="path10443" />
      <path
         d="m 233.5,41.21875 v 0.5625 q 0,4.3125 0.9375,6.71875 0.96875,2.375 2.9375,3.625 2,1.25 5.21875,1.25 1.6875,0 4,-0.28125 2.3125,-0.28125 3.8125,-0.625 v 1.75 q -1.5,0.96875 -4.09375,1.6875 -2.5625,0.71875 -5.25,0.71875 -6.84375,0 -10.03125,-3.6875 Q 227.875,49.25 227.875,41.09375 q 0,-7.6875 3.21875,-11.46875 3.21875,-3.78125 9.1875,-3.78125 11.28125,0 11.28125,12.8125 v 2.5625 z m 6.78125,-12.875 q -3.25,0 -5,2.625 -1.71875,2.625 -1.71875,7.75 h 12.5625 q 0,-5.59375 -1.4375,-7.96875 -1.4375,-2.40625 -4.40625,-2.40625 z"
         id="path10445" />
      <path
         d="m 276.375,53.8125 q -3.53125,2.8125 -8.25,2.8125 -12.03125,0 -12.03125,-15.03125 0,-7.71875 3.40625,-11.71875 3.40625,-4.03125 10.03125,-4.03125 3.375,0 6.84375,0.71875 -0.1875,-1.03125 -0.1875,-5.1875 V 13.75 L 271.25,13 v -1.40625 h 10.125 V 53.8125 L 285,54.59375 V 56 h -8.25 z M 261.71875,41.59375 q 0,5.9375 2,8.875 2,2.90625 6.125,2.90625 3.53125,0 6.34375,-1.21875 V 28.9375 q -2.78125,-0.53125 -6.34375,-0.53125 -8.125,0 -8.125,13.1875 z"
         id="path10447" />
      <path
         d="m 297.625,17.03125 q 0,1.375 -1,2.375 -1,1 -2.40625,1 -1.375,0 -2.375,-1 -1,-1 -1,-2.375 0,-1.40625 1,-2.40625 1,-1 2.375,-1 1.40625,0 2.40625,1 1,1 1,2.40625 z m -0.3125,36.78125 5.03125,0.78125 V 56 H 287.125 v -1.40625 l 5,-0.78125 v -25 l -4.15625,-0.78125 V 26.625 h 9.34375 z"
         id="path10449" />
      <path
         d="m 330,54.21875 q -1.53125,1.125 -4.21875,1.78125 -2.6875,0.625 -5.5,0.625 Q 306,56.625 306,41.09375 306,33.75 309.625,29.8125 q 3.65625,-3.96875 10.4375,-3.96875 4.21875,0 9.21875,0.96875 V 35 h -1.71875 l -1.34375,-5.1875 Q 323.625,28.34375 320,28.34375 q -8.375,0 -8.375,12.75 0,6.625 2.53125,9.46875 2.5625,2.8125 7.90625,2.8125 4.5625,0 7.9375,-1.03125 z"
         id="path10451" />
      <path
         d="m 342.40625,56.625 q -3,0 -4.5,-1.78125 -1.46875,-1.78125 -1.46875,-5 V 29.25 h -3.84375 V 27.84375 L 336.5,26.625 339.65625,19.96875 H 341.625 V 26.625 h 6.71875 V 29.25 H 341.625 v 20.03125 q 0,2.03125 0.90625,3.0625 0.9375,1.03125 2.4375,1.03125 1.8125,0 4.40625,-0.5 v 2.03125 q -1.09375,0.75 -3.15625,1.21875 -2.0625,0.5 -3.8125,0.5 z"
         id="path10453" />
      <path
         d="m 361.59375,17.03125 q 0,1.375 -1,2.375 -1,1 -2.40625,1 -1.375,0 -2.375,-1 -1,-1 -1,-2.375 0,-1.40625 1,-2.40625 1,-1 2.375,-1 1.40625,0 2.40625,1 1,1 1,2.40625 z m -0.3125,36.78125 5.03125,0.78125 V 56 h -15.21875 v -1.40625 l 5,-0.78125 v -25 L 351.9375,28.03125 V 26.625 h 9.34375 z"
         id="path10455" />
      <path
         d="m 397.09375,41.15625 q 0,15.46875 -13.75,15.46875 -6.625,0 -10,-3.96875 -3.375,-3.96875 -3.375,-11.5 0,-7.4375 3.375,-11.375 3.375,-3.9375 10.25,-3.9375 6.6875,0 10.09375,3.875 3.40625,3.84375 3.40625,11.4375 z m -5.625,0 q 0,-6.75 -1.96875,-9.78125 -1.96875,-3.03125 -6.15625,-3.03125 -4.09375,0 -5.9375,2.90625 -1.8125,2.90625 -1.8125,9.90625 0,7.09375 1.84375,10.0625 1.875,2.9375 5.90625,2.9375 4.125,0 6.125,-3.0625 2,-3.0625 2,-9.9375 z"
         id="path10457" />
      <path
         d="m 409.65625,29 q 2.40625,-1.375 5.125,-2.25 2.71875,-0.90625 4.53125,-0.90625 3.8125,0 5.75,2.21875 Q 427,30.28125 427,34.5 v 19.3125 l 3.5625,0.78125 V 56 h -12.65625 v -1.40625 l 3.90625,-0.78125 v -18.75 q 0,-2.59375 -1.28125,-4.0625 -1.25,-1.5 -3.90625,-1.5 -2.8125,0 -6.90625,0.90625 V 53.8125 l 3.96875,0.78125 V 56 H 401 v -1.40625 l 3.53125,-0.78125 v -25 L 401,28.03125 V 26.625 h 8.375 z"
         id="path10459" />
    </g>
    <rect
       fill="#dd3333"
       height="0"
       id="svg_3"
       stroke="#000000"
       width="0"
       x="-46.5"
       y="-142.5" />
    <rect
       fill="#dd3333"
       height="0"
       id="svg_4"
       stroke="#000000"
       width="0"
       x="118.5"
       y="61" />
  </g>
  <xhtml:iframe
     class="cleanslate hidden"
     src="logo_files/commandline.html"
     id="cmdline_iframe"
     loading="lazy"
     style="height: 0px !important;" />
</svg>
